<svg class="railroad-diagram" height="122" viewBox="0 0 430.0 122" width="430.0" xmlns="http://www.w3.org/2000/svg" xmlns:xlink="http://www.w3.org/1999/xlink">
<g transform="translate(.5 .5)">
<g>
<path d="M20 21v20m10 -20v20m-10 -10h20" /></g><path d="M40 31h10" /><g>
<path d="M50 31h0.0" /><path d="M380.0 31h0.0" /><g class="terminal ">
<path d="M50.0 31h0.0" /><path d="M129.5 31h0.0" /><rect height="22" rx="10" ry="10" width="79.5" x="50" y="20"></rect><text x="89.75" y="35">counted</text></g><path d="M129.5 31h10" /><path d="M139.5 31h10" /><g class="terminal ">
<path d="M149.5 31h0.0" /><path d="M203.5 31h0.0" /><rect height="22" rx="10" ry="10" width="54" x="149.5" y="20"></rect><text x="176.5" y="35">with</text></g><path d="M203.5 31h10" /><g>
<path d="M213.5 31h0.0" /><path d="M341.5 31h0.0" /><path d="M213.5 31h20" /><g class="terminal ">
<path d="M233.5 31h8.5" /><path d="M313.0 31h8.5" /><rect height="22" rx="10" ry="10" width="71" x="242" y="20"></rect><text x="277.5" y="35">&lt;NAME></text></g><path d="M321.5 31h20" /><path d="M213.5 31a10 10 0 0 1 10 10v10a10 10 0 0 0 10 10" /><g class="terminal ">
<path d="M233.5 61h0.0" /><path d="M321.5 61h0.0" /><rect height="22" rx="10" ry="10" width="88" x="233.5" y="50"></rect><text x="277.5" y="65">&apos;&lt;NAME>&apos;</text></g><path d="M321.5 61a10 10 0 0 0 10 -10v-10a10 10 0 0 1 10 -10" /><path d="M213.5 31a10 10 0 0 1 10 10v40a10 10 0 0 0 10 10" /><g class="terminal ">
<path d="M233.5 91h0.0" /><path d="M321.5 91h0.0" /><rect height="22" rx="10" ry="10" width="88" x="233.5" y="80"></rect><text x="277.5" y="95">&quot;&lt;NAME>&quot;</text></g><path d="M321.5 91a10 10 0 0 0 10 -10v-40a10 10 0 0 1 10 -10" /></g><path d="M341.5 31h10" /><g class="terminal ">
<path d="M351.5 31h0.0" /><path d="M380.0 31h0.0" /><rect height="22" rx="10" ry="10" width="28.5" x="351.5" y="20"></rect><text x="365.75" y="35">;</text></g></g><path d="M380.0 31h10" /><path d="M 390.0 31 h 20 m -10 -10 v 20 m 10 -20 v 20"></path></g><style>/* <![CDATA[ */
svg.railroad-diagram {
    background-color:hsl(30,20%,95%);
}
svg.railroad-diagram path {
    stroke-width:3;
    stroke:black;
    fill:rgba(0,0,0,0);
}
svg.railroad-diagram text {
    font:bold 14px monospace;
    text-anchor:middle;
}
svg.railroad-diagram text.label{
    text-anchor:start;
}
svg.railroad-diagram text.comment{
    font:italic 12px monospace;
}
svg.railroad-diagram rect{
    stroke-width:3;
    stroke:black;
    fill:hsl(120,100%,90%);
}
svg.railroad-diagram g.non-terminal rect{
    stroke: black;
    fill: white;
)
svg.railroad-diagram rect.group-box {
    stroke: gray;
    stroke-dasharray: 10 5;
    fill: none;
}
/* ]]> */
</style></svg>