<svg class="railroad-diagram" height="139" viewBox="0 0 447.5 139" width="447.5" xmlns="http://www.w3.org/2000/svg" xmlns:xlink="http://www.w3.org/1999/xlink">
<g transform="translate(.5 .5)">
<g>
<path d="M20 30v20m10 -20v20m-10 -10h20" /></g><path d="M40 40h10" /><g class="terminal ">
<path d="M50 40h0.0" /><path d="M129.5 40h0.0" /><rect height="22" rx="10" ry="10" width="79.5" x="50" y="29"></rect><text x="89.75" y="44">%define</text></g><path d="M129.5 40h10" /><path d="M139.5 40h10" /><g class="terminal ">
<path d="M149.5 40h0.0" /><path d="M178.0 40h0.0" /><rect height="22" rx="10" ry="10" width="28.5" x="149.5" y="29"></rect><text x="163.75" y="44">{</text></g><path d="M178.0 40h10" /><g>
<path d="M188.0 40h0.0" /><path d="M359.0 40h0.0" /><path d="M188.0 40a10 10 0 0 0 10 -10v0a10 10 0 0 1 10 -10" /><g>
<path d="M208.0 20h131.0" /></g><path d="M339.0 20a10 10 0 0 1 10 10v0a10 10 0 0 0 10 10" /><path d="M188.0 40h20" /><g>
<path d="M208.0 40h0.0" /><path d="M339.0 40h0.0" /><path d="M208.0 40h10" /><g>
<path d="M218.0 40h0.0" /><path d="M329.0 40h0.0" /><path d="M218.0 40h20" /><g class="non-terminal ">
<path d="M238.0 40h12.75" /><path d="M296.25 40h12.75" /><rect height="22" width="45.5" x="250.75" y="29"></rect><text x="273.5" y="44">MIB</text></g><path d="M309.0 40h20" /><path d="M218.0 40a10 10 0 0 1 10 10v10a10 10 0 0 0 10 10" /><g class="non-terminal ">
<path d="M238.0 70h0.0" /><path d="M309.0 70h0.0" /><rect height="22" width="71" x="238" y="59"></rect><text x="273.5" y="74">OBJECT</text></g><path d="M309.0 70a10 10 0 0 0 10 -10v-10a10 10 0 0 1 10 -10" /><path d="M218.0 40a10 10 0 0 1 10 10v40a10 10 0 0 0 10 10" /><g class="non-terminal ">
<path d="M238.0 100h0.0" /><path d="M309.0 100h0.0" /><rect height="22" width="71" x="238" y="89"></rect><text x="273.5" y="104">SELECT</text></g><path d="M309.0 100a10 10 0 0 0 10 -10v-40a10 10 0 0 1 10 -10" /></g><path d="M329.0 40h10" /><path d="M218.0 40a10 10 0 0 0 -10 10v59a10 10 0 0 0 10 10" /><g>
<path d="M218.0 119h111.0" /></g><path d="M329.0 119a10 10 0 0 0 10 -10v-59a10 10 0 0 0 -10 -10" /></g><path d="M339.0 40h20" /></g><path d="M359.0 40h10" /><g class="terminal ">
<path d="M369.0 40h0.0" /><path d="M397.5 40h0.0" /><rect height="22" rx="10" ry="10" width="28.5" x="369" y="29"></rect><text x="383.25" y="44">}</text></g><path d="M397.5 40h10" /><path d="M 407.5 40 h 20 m -10 -10 v 20 m 10 -20 v 20"></path></g><style>/* <![CDATA[ */
svg.railroad-diagram {
    background-color:hsl(30,20%,95%);
}
svg.railroad-diagram path {
    stroke-width:3;
    stroke:black;
    fill:rgba(0,0,0,0);
}
svg.railroad-diagram text {
    font:bold 14px monospace;
    text-anchor:middle;
}
svg.railroad-diagram text.label{
    text-anchor:start;
}
svg.railroad-diagram text.comment{
    font:italic 12px monospace;
}
svg.railroad-diagram rect{
    stroke-width:3;
    stroke:black;
    fill:hsl(120,100%,90%);
}
svg.railroad-diagram g.non-terminal rect{
    stroke: black;
    fill: white;
)
svg.railroad-diagram rect.group-box {
    stroke: gray;
    stroke-dasharray: 10 5;
    fill: none;
}
/* ]]> */
</style></svg>