<svg class="railroad-diagram" height="62" viewBox="0 0 492.5 62" width="492.5" xmlns="http://www.w3.org/2000/svg" xmlns:xlink="http://www.w3.org/1999/xlink">
<g transform="translate(.5 .5)">
<g>
<path d="M20 21v20m10 -20v20m-10 -10h20" /></g><path d="M40 31h10" /><g>
<path d="M50 31h0.0" /><path d="M442.5 31h0.0" /><g class="terminal ">
<path d="M50.0 31h0.0" /><path d="M163.5 31h0.0" /><rect height="22" rx="10" ry="10" width="113.5" x="50" y="20"></rect><text x="106.75" y="35">entry-point</text></g><path d="M163.5 31h10" /><path d="M173.5 31h10" /><g class="terminal ">
<path d="M183.5 31h0.0" /><path d="M254.5 31h0.0" /><rect height="22" rx="10" ry="10" width="71" x="183.5" y="20"></rect><text x="219" y="35">&lt;NAME></text></g><path d="M254.5 31h10" /><path d="M264.5 31h10" /><g class="terminal ">
<path d="M274.5 31h0.0" /><path d="M303.0 31h0.0" /><rect height="22" rx="10" ry="10" width="28.5" x="274.5" y="20"></rect><text x="288.75" y="35">.</text></g><path d="M303.0 31h10" /><path d="M313.0 31h10" /><g class="terminal ">
<path d="M323.0 31h0.0" /><path d="M394.0 31h0.0" /><rect height="22" rx="10" ry="10" width="71" x="323" y="20"></rect><text x="358.5" y="35">&lt;NAME></text></g><path d="M394.0 31h10" /><path d="M404.0 31h10" /><g class="terminal ">
<path d="M414.0 31h0.0" /><path d="M442.5 31h0.0" /><rect height="22" rx="10" ry="10" width="28.5" x="414" y="20"></rect><text x="428.25" y="35">;</text></g></g><path d="M442.5 31h10" /><path d="M 452.5 31 h 20 m -10 -10 v 20 m 10 -20 v 20"></path></g><style>/* <![CDATA[ */
svg.railroad-diagram {
    background-color:hsl(30,20%,95%);
}
svg.railroad-diagram path {
    stroke-width:3;
    stroke:black;
    fill:rgba(0,0,0,0);
}
svg.railroad-diagram text {
    font:bold 14px monospace;
    text-anchor:middle;
}
svg.railroad-diagram text.label{
    text-anchor:start;
}
svg.railroad-diagram text.comment{
    font:italic 12px monospace;
}
svg.railroad-diagram rect{
    stroke-width:3;
    stroke:black;
    fill:hsl(120,100%,90%);
}
svg.railroad-diagram g.non-terminal rect{
    stroke: black;
    fill: white;
)
svg.railroad-diagram rect.group-box {
    stroke: gray;
    stroke-dasharray: 10 5;
    fill: none;
}
/* ]]> */
</style></svg>