<svg class="railroad-diagram" height="122" viewBox="0 0 495.5 122" width="495.5" xmlns="http://www.w3.org/2000/svg" xmlns:xlink="http://www.w3.org/1999/xlink">
<g transform="translate(.5 .5)">
<g>
<path d="M20 21v20m10 -20v20m-10 -10h20" /></g><path d="M40 31h10" /><g>
<path d="M50 31h0.0" /><path d="M445.5 31h0.0" /><g class="terminal ">
<path d="M50.0 31h0.0" /><path d="M121.0 31h0.0" /><rect height="22" rx="10" ry="10" width="71" x="50" y="20"></rect><text x="85.5" y="35">extend</text></g><path d="M121.0 31h10" /><path d="M131.0 31h10" /><g class="terminal ">
<path d="M141.0 31h0.0" /><path d="M203.5 31h0.0" /><rect height="22" rx="10" ry="10" width="62.5" x="141" y="20"></rect><text x="172.25" y="35">using</text></g><path d="M203.5 31h10" /><path d="M213.5 31h10" /><g class="terminal ">
<path d="M223.5 31h0.0" /><path d="M269.0 31h0.0" /><rect height="22" rx="10" ry="10" width="45.5" x="223.5" y="20"></rect><text x="246.25" y="35">mib</text></g><path d="M269.0 31h10" /><g>
<path d="M279.0 31h0.0" /><path d="M407.0 31h0.0" /><path d="M279.0 31h20" /><g class="terminal ">
<path d="M299.0 31h8.5" /><path d="M378.5 31h8.5" /><rect height="22" rx="10" ry="10" width="71" x="307.5" y="20"></rect><text x="343" y="35">&lt;NAME></text></g><path d="M387.0 31h20" /><path d="M279.0 31a10 10 0 0 1 10 10v10a10 10 0 0 0 10 10" /><g class="terminal ">
<path d="M299.0 61h0.0" /><path d="M387.0 61h0.0" /><rect height="22" rx="10" ry="10" width="88" x="299" y="50"></rect><text x="343" y="65">&apos;&lt;NAME>&apos;</text></g><path d="M387.0 61a10 10 0 0 0 10 -10v-10a10 10 0 0 1 10 -10" /><path d="M279.0 31a10 10 0 0 1 10 10v40a10 10 0 0 0 10 10" /><g class="terminal ">
<path d="M299.0 91h0.0" /><path d="M387.0 91h0.0" /><rect height="22" rx="10" ry="10" width="88" x="299" y="80"></rect><text x="343" y="95">&quot;&lt;NAME>&quot;</text></g><path d="M387.0 91a10 10 0 0 0 10 -10v-40a10 10 0 0 1 10 -10" /></g><path d="M407.0 31h10" /><g class="terminal ">
<path d="M417.0 31h0.0" /><path d="M445.5 31h0.0" /><rect height="22" rx="10" ry="10" width="28.5" x="417" y="20"></rect><text x="431.25" y="35">;</text></g></g><path d="M445.5 31h10" /><path d="M 455.5 31 h 20 m -10 -10 v 20 m 10 -20 v 20"></path></g><style>/* <![CDATA[ */
svg.railroad-diagram {
    background-color:hsl(30,20%,95%);
}
svg.railroad-diagram path {
    stroke-width:3;
    stroke:black;
    fill:rgba(0,0,0,0);
}
svg.railroad-diagram text {
    font:bold 14px monospace;
    text-anchor:middle;
}
svg.railroad-diagram text.label{
    text-anchor:start;
}
svg.railroad-diagram text.comment{
    font:italic 12px monospace;
}
svg.railroad-diagram rect{
    stroke-width:3;
    stroke:black;
    fill:hsl(120,100%,90%);
}
svg.railroad-diagram g.non-terminal rect{
    stroke: black;
    fill: white;
)
svg.railroad-diagram rect.group-box {
    stroke: gray;
    stroke-dasharray: 10 5;
    fill: none;
}
/* ]]> */
</style></svg>