<svg class="railroad-diagram" height="150" viewBox="0 0 793.0 150" width="793.0" xmlns="http://www.w3.org/2000/svg" xmlns:xlink="http://www.w3.org/1999/xlink">
<g transform="translate(.5 .5)">
<g>
<path d="M20 21v20m10 -20v20m-10 -10h20" /></g><path d="M40 31h10" /><g>
<path d="M50 31h0.0" /><path d="M743.0 31h0.0" /><g class="terminal ">
<path d="M50.0 31h0.0" /><path d="M121.0 31h0.0" /><rect height="22" rx="10" ry="10" width="71" x="50" y="20"></rect><text x="85.5" y="35">import</text></g><path d="M121.0 31h10" /><g>
<path d="M131.0 31h0.0" /><path d="M259.0 31h0.0" /><path d="M131.0 31h20" /><g class="terminal ">
<path d="M151.0 31h0.0" /><path d="M239.0 31h0.0" /><rect height="22" rx="10" ry="10" width="88" x="151" y="20"></rect><text x="195" y="35">&apos;&lt;FILE>&apos;</text></g><path d="M239.0 31h20" /><path d="M131.0 31a10 10 0 0 1 10 10v10a10 10 0 0 0 10 10" /><g class="terminal ">
<path d="M151.0 61h0.0" /><path d="M239.0 61h0.0" /><rect height="22" rx="10" ry="10" width="88" x="151" y="50"></rect><text x="195" y="65">&quot;&lt;FILE>&quot;</text></g><path d="M239.0 61a10 10 0 0 0 10 -10v-10a10 10 0 0 1 10 -10" /></g><g>
<path d="M259.0 31h0.0" /><path d="M489.5 31h0.0" /><path d="M259.0 31h20" /><g>
<path d="M279.0 31h190.5" /></g><path d="M469.5 31h20" /><path d="M259.0 31a10 10 0 0 1 10 10v0a10 10 0 0 0 10 10" /><g>
<path d="M279.0 51h0.0" /><path d="M469.5 51h0.0" /><path d="M279.0 51h10" /><g>
<path d="M289.0 51h0.0" /><path d="M459.5 51h0.0" /><path d="M289.0 51h20" /><g class="terminal ">
<path d="M309.0 51h21.25" /><path d="M418.25 51h21.25" /><rect height="22" rx="10" ry="10" width="88" x="330.25" y="40"></rect><text x="374.25" y="55">RTLD_NOW</text></g><path d="M439.5 51h20" /><path d="M289.0 51a10 10 0 0 1 10 10v10a10 10 0 0 0 10 10" /><g class="terminal ">
<path d="M309.0 81h8.5" /><path d="M431.0 81h8.5" /><rect height="22" rx="10" ry="10" width="113.5" x="317.5" y="70"></rect><text x="374.25" y="85">RTLD_GLOBAL</text></g><path d="M439.5 81a10 10 0 0 0 10 -10v-10a10 10 0 0 1 10 -10" /><path d="M289.0 51a10 10 0 0 1 10 10v40a10 10 0 0 0 10 10" /><g class="terminal ">
<path d="M309.0 111h0.0" /><path d="M439.5 111h0.0" /><rect height="22" rx="10" ry="10" width="130.5" x="309" y="100"></rect><text x="374.25" y="115">RTLD_NODELETE</text></g><path d="M439.5 111a10 10 0 0 0 10 -10v-40a10 10 0 0 1 10 -10" /></g><path d="M459.5 51h10" /><path d="M289.0 51a10 10 0 0 0 -10 10v59a10 10 0 0 0 10 10" /><g>
<path d="M289.0 130h170.5" /></g><path d="M459.5 130a10 10 0 0 0 10 -10v-59a10 10 0 0 0 -10 -10" /></g><path d="M469.5 51a10 10 0 0 0 10 -10v0a10 10 0 0 1 10 -10" /></g><g>
<path d="M489.5 31h0.0" /><path d="M704.5 31h0.0" /><path d="M489.5 31h20" /><g>
<path d="M509.5 31h175.0" /></g><path d="M684.5 31h20" /><path d="M489.5 31a10 10 0 0 1 10 10v0a10 10 0 0 0 10 10" /><g>
<path d="M509.5 51h0.0" /><path d="M684.5 51h0.0" /><g class="terminal ">
<path d="M509.5 51h0.0" /><path d="M546.5 51h0.0" /><rect height="22" rx="10" ry="10" width="37" x="509.5" y="40"></rect><text x="528" y="55">as</text></g><path d="M546.5 51h10" /><g>
<path d="M556.5 51h0.0" /><path d="M684.5 51h0.0" /><path d="M556.5 51h20" /><g class="terminal ">
<path d="M576.5 51h0.0" /><path d="M664.5 51h0.0" /><rect height="22" rx="10" ry="10" width="88" x="576.5" y="40"></rect><text x="620.5" y="55">&apos;&lt;NAME>&apos;</text></g><path d="M664.5 51h20" /><path d="M556.5 51a10 10 0 0 1 10 10v10a10 10 0 0 0 10 10" /><g class="terminal ">
<path d="M576.5 81h0.0" /><path d="M664.5 81h0.0" /><rect height="22" rx="10" ry="10" width="88" x="576.5" y="70"></rect><text x="620.5" y="85">&quot;&lt;NAME>&quot;</text></g><path d="M664.5 81a10 10 0 0 0 10 -10v-10a10 10 0 0 1 10 -10" /></g></g><path d="M684.5 51a10 10 0 0 0 10 -10v0a10 10 0 0 1 10 -10" /></g><path d="M704.5 31h10" /><g class="terminal ">
<path d="M714.5 31h0.0" /><path d="M743.0 31h0.0" /><rect height="22" rx="10" ry="10" width="28.5" x="714.5" y="20"></rect><text x="728.75" y="35">;</text></g></g><path d="M743.0 31h10" /><path d="M 753.0 31 h 20 m -10 -10 v 20 m 10 -20 v 20"></path></g><style>/* <![CDATA[ */
svg.railroad-diagram {
    background-color:hsl(30,20%,95%);
}
svg.railroad-diagram path {
    stroke-width:3;
    stroke:black;
    fill:rgba(0,0,0,0);
}
svg.railroad-diagram text {
    font:bold 14px monospace;
    text-anchor:middle;
}
svg.railroad-diagram text.label{
    text-anchor:start;
}
svg.railroad-diagram text.comment{
    font:italic 12px monospace;
}
svg.railroad-diagram rect{
    stroke-width:3;
    stroke:black;
    fill:hsl(120,100%,90%);
}
svg.railroad-diagram g.non-terminal rect{
    stroke: black;
    fill: white;
)
svg.railroad-diagram rect.group-box {
    stroke: gray;
    stroke-dasharray: 10 5;
    fill: none;
}
/* ]]> */
</style></svg>