<svg class="railroad-diagram" height="160" viewBox="0 0 547.0 160" width="547.0" xmlns="http://www.w3.org/2000/svg" xmlns:xlink="http://www.w3.org/1999/xlink">
<g transform="translate(.5 .5)">
<g>
<path d="M20 21v20m10 -20v20m-10 -10h20" /></g><path d="M40 31h10" /><g class="terminal ">
<path d="M50 31h0.0" /><path d="M95.5 31h0.0" /><rect height="22" rx="10" ry="10" width="45.5" x="50" y="20"></rect><text x="72.75" y="35">mib</text></g><path d="M95.5 31h10" /><g>
<path d="M105.5 31h0.0" /><path d="M233.5 31h0.0" /><path d="M105.5 31h20" /><g class="terminal ">
<path d="M125.5 31h8.5" /><path d="M205.0 31h8.5" /><rect height="22" rx="10" ry="10" width="71" x="134" y="20"></rect><text x="169.5" y="35">&lt;NAME></text></g><path d="M213.5 31h20" /><path d="M105.5 31a10 10 0 0 1 10 10v10a10 10 0 0 0 10 10" /><g class="terminal ">
<path d="M125.5 61h0.0" /><path d="M213.5 61h0.0" /><rect height="22" rx="10" ry="10" width="88" x="125.5" y="50"></rect><text x="169.5" y="65">&apos;&lt;NAME>&apos;</text></g><path d="M213.5 61a10 10 0 0 0 10 -10v-10a10 10 0 0 1 10 -10" /><path d="M105.5 31a10 10 0 0 1 10 10v40a10 10 0 0 0 10 10" /><g class="terminal ">
<path d="M125.5 91h0.0" /><path d="M213.5 91h0.0" /><rect height="22" rx="10" ry="10" width="88" x="125.5" y="80"></rect><text x="169.5" y="95">&quot;&lt;NAME>&quot;</text></g><path d="M213.5 91a10 10 0 0 0 10 -10v-40a10 10 0 0 1 10 -10" /></g><path d="M233.5 31h10" /><g class="terminal ">
<path d="M243.5 31h0.0" /><path d="M272.0 31h0.0" /><rect height="22" rx="10" ry="10" width="28.5" x="243.5" y="20"></rect><text x="257.75" y="35">{</text></g><path d="M272.0 31h10" /><path d="M282.0 31h10" /><g>
<path d="M292.0 31h0.0" /><path d="M448.5 31h0.0" /><path d="M292.0 31h10" /><g>
<path d="M302.0 31h0.0" /><path d="M438.5 31h0.0" /><path d="M302.0 31h20" /><g class="non-terminal ">
<path d="M322.0 31h12.75" /><path d="M405.75 31h12.75" /><rect height="22" width="71" x="334.75" y="20"></rect><text x="370.25" y="35">OBJECT</text></g><path d="M418.5 31h20" /><path d="M302.0 31a10 10 0 0 1 10 10v10a10 10 0 0 0 10 10" /><g class="non-terminal ">
<path d="M322.0 61h0.0" /><path d="M418.5 61h0.0" /><rect height="22" width="96.5" x="322" y="50"></rect><text x="370.25" y="65">PARAMETER</text></g><path d="M418.5 61a10 10 0 0 0 10 -10v-10a10 10 0 0 1 10 -10" /><path d="M302.0 31a10 10 0 0 1 10 10v40a10 10 0 0 0 10 10" /><g class="non-terminal ">
<path d="M322.0 91h17.0" /><path d="M401.5 91h17.0" /><rect height="22" width="62.5" x="339" y="80"></rect><text x="370.25" y="95">EVENT</text></g><path d="M418.5 91a10 10 0 0 0 10 -10v-40a10 10 0 0 1 10 -10" /><path d="M302.0 31a10 10 0 0 1 10 10v70a10 10 0 0 0 10 10" /><g class="non-terminal ">
<path d="M322.0 121h4.25" /><path d="M414.25 121h4.25" /><rect height="22" width="88" x="326.25" y="110"></rect><text x="370.25" y="125">FUNCTION</text></g><path d="M418.5 121a10 10 0 0 0 10 -10v-70a10 10 0 0 1 10 -10" /></g><path d="M438.5 31h10" /><path d="M302.0 31a10 10 0 0 0 -10 10v89a10 10 0 0 0 10 10" /><g>
<path d="M302.0 140h136.5" /></g><path d="M438.5 140a10 10 0 0 0 10 -10v-89a10 10 0 0 0 -10 -10" /></g><path d="M448.5 31h10" /><path d="M458.5 31h10" /><g class="terminal ">
<path d="M468.5 31h0.0" /><path d="M497.0 31h0.0" /><rect height="22" rx="10" ry="10" width="28.5" x="468.5" y="20"></rect><text x="482.75" y="35">}</text></g><path d="M497.0 31h10" /><path d="M 507.0 31 h 20 m -10 -10 v 20 m 10 -20 v 20"></path></g><style>/* <![CDATA[ */
svg.railroad-diagram {
    background-color:hsl(30,20%,95%);
}
svg.railroad-diagram path {
    stroke-width:3;
    stroke:black;
    fill:rgba(0,0,0,0);
}
svg.railroad-diagram text {
    font:bold 14px monospace;
    text-anchor:middle;
}
svg.railroad-diagram text.label{
    text-anchor:start;
}
svg.railroad-diagram text.comment{
    font:italic 12px monospace;
}
svg.railroad-diagram rect{
    stroke-width:3;
    stroke:black;
    fill:hsl(120,100%,90%);
}
svg.railroad-diagram g.non-terminal rect{
    stroke: black;
    fill: white;
)
svg.railroad-diagram rect.group-box {
    stroke: gray;
    stroke-dasharray: 10 5;
    fill: none;
}
/* ]]> */
</style></svg>