<svg class="railroad-diagram" height="358" viewBox="0 0 1301.5 358" width="1301.5" xmlns="http://www.w3.org/2000/svg" xmlns:xlink="http://www.w3.org/1999/xlink">
<g transform="translate(.5 .5)">
<g>
<path d="M20 30v20m10 -20v20m-10 -10h20" /></g><path d="M40 40h10" /><g>
<path d="M50 40h0.0" /><path d="M1251.5 40h0.0" /><g>
<path d="M50.0 40h0.0" /><path d="M235.0 40h0.0" /><path d="M50.0 40h20" /><g>
<path d="M70.0 40h145.0" /></g><path d="M215.0 40h20" /><path d="M50.0 40a10 10 0 0 1 10 10v0a10 10 0 0 0 10 10" /><g>
<path d="M70.0 60h0.0" /><path d="M215.0 60h0.0" /><path d="M70.0 60h20" /><g class="terminal ">
<path d="M90.0 60h0.0" /><path d="M195.0 60h0.0" /><rect height="22" rx="10" ry="10" width="105" x="90" y="49"></rect><text x="142.5" y="64">%protected</text></g><path d="M195.0 60h20" /><path d="M70.0 60a10 10 0 0 1 10 10v10a10 10 0 0 0 10 10" /><g class="terminal ">
<path d="M90.0 90h8.5" /><path d="M186.5 90h8.5" /><rect height="22" rx="10" ry="10" width="88" x="98.5" y="79"></rect><text x="142.5" y="94">%private</text></g><path d="M195.0 90a10 10 0 0 0 10 -10v-10a10 10 0 0 1 10 -10" /></g><path d="M215.0 60a10 10 0 0 0 10 -10v0a10 10 0 0 1 10 -10" /></g><g>
<path d="M235.0 40h0.0" /><path d="M448.5 40h0.0" /><path d="M235.0 40h20" /><g>
<path d="M255.0 40h173.5" /></g><path d="M428.5 40h20" /><path d="M235.0 40a10 10 0 0 1 10 10v0a10 10 0 0 0 10 10" /><g>
<path d="M255.0 60h0.0" /><path d="M428.5 60h0.0" /><path d="M255.0 60h10" /><g>
<path d="M265.0 60h0.0" /><path d="M418.5 60h0.0" /><path d="M265.0 60h20" /><g class="terminal ">
<path d="M285.0 60h0.0" /><path d="M398.5 60h0.0" /><rect height="22" rx="10" ry="10" width="113.5" x="285" y="49"></rect><text x="341.75" y="64">%persistent</text></g><path d="M398.5 60h20" /><path d="M265.0 60a10 10 0 0 1 10 10v10a10 10 0 0 0 10 10" /><g class="terminal ">
<path d="M285.0 90h4.25" /><path d="M394.25 90h4.25" /><rect height="22" rx="10" ry="10" width="105" x="289.25" y="79"></rect><text x="341.75" y="94">%read-only</text></g><path d="M398.5 90a10 10 0 0 0 10 -10v-10a10 10 0 0 1 10 -10" /></g><path d="M418.5 60h10" /><path d="M265.0 60a10 10 0 0 0 -10 10v29a10 10 0 0 0 10 10" /><g>
<path d="M265.0 109h153.5" /></g><path d="M418.5 109a10 10 0 0 0 10 -10v-29a10 10 0 0 0 -10 -10" /></g><path d="M428.5 60a10 10 0 0 0 10 -10v0a10 10 0 0 1 10 -10" /></g><path d="M448.5 40h10" /><g class="terminal ">
<path d="M458.5 40h0.0" /><path d="M529.5 40h0.0" /><rect height="22" rx="10" ry="10" width="71" x="458.5" y="29"></rect><text x="494" y="44">object</text></g><path d="M529.5 40h10" /><g>
<path d="M539.5 40h0.0" /><path d="M667.5 40h0.0" /><path d="M539.5 40h20" /><g class="terminal ">
<path d="M559.5 40h8.5" /><path d="M639.0 40h8.5" /><rect height="22" rx="10" ry="10" width="71" x="568" y="29"></rect><text x="603.5" y="44">&lt;NAME></text></g><path d="M647.5 40h20" /><path d="M539.5 40a10 10 0 0 1 10 10v10a10 10 0 0 0 10 10" /><g class="terminal ">
<path d="M559.5 70h0.0" /><path d="M647.5 70h0.0" /><rect height="22" rx="10" ry="10" width="88" x="559.5" y="59"></rect><text x="603.5" y="74">&apos;&lt;NAME>&apos;</text></g><path d="M647.5 70a10 10 0 0 0 10 -10v-10a10 10 0 0 1 10 -10" /><path d="M539.5 40a10 10 0 0 1 10 10v40a10 10 0 0 0 10 10" /><g class="terminal ">
<path d="M559.5 100h0.0" /><path d="M647.5 100h0.0" /><rect height="22" rx="10" ry="10" width="88" x="559.5" y="89"></rect><text x="603.5" y="104">&quot;&lt;NAME>&quot;</text></g><path d="M647.5 100a10 10 0 0 0 10 -10v-40a10 10 0 0 1 10 -10" /></g><g>
<path d="M667.5 40h0.0" /><path d="M912.5 40h0.0" /><path d="M667.5 40a10 10 0 0 0 10 -10v0a10 10 0 0 1 10 -10" /><g>
<path d="M687.5 20h205.0" /></g><path d="M892.5 20a10 10 0 0 1 10 10v0a10 10 0 0 0 10 10" /><path d="M667.5 40h20" /><g>
<path d="M687.5 40h0.0" /><path d="M892.5 40h0.0" /><g class="terminal ">
<path d="M687.5 40h0.0" /><path d="M716.0 40h0.0" /><rect height="22" rx="10" ry="10" width="28.5" x="687.5" y="29"></rect><text x="701.75" y="44">[</text></g><path d="M716.0 40h10" /><g>
<path d="M726.0 40h0.0" /><path d="M854.0 40h0.0" /><path d="M726.0 40h20" /><g>
<path d="M746.0 40h88.0" /></g><path d="M834.0 40h20" /><path d="M726.0 40a10 10 0 0 1 10 10v0a10 10 0 0 0 10 10" /><g class="terminal ">
<path d="M746.0 60h0.0" /><path d="M834.0 60h0.0" /><rect height="22" rx="10" ry="10" width="88" x="746" y="49"></rect><text x="790" y="64">&lt;NUMBER></text></g><path d="M834.0 60a10 10 0 0 0 10 -10v0a10 10 0 0 1 10 -10" /></g><path d="M854.0 40h10" /><g class="terminal ">
<path d="M864.0 40h0.0" /><path d="M892.5 40h0.0" /><rect height="22" rx="10" ry="10" width="28.5" x="864" y="29"></rect><text x="878.25" y="44">]</text></g></g><path d="M892.5 40h20" /></g><g>
<path d="M912.5 40h0.0" /><path d="M1251.5 40h0.0" /><path d="M912.5 40h20" /><g class="terminal ">
<path d="M932.5 40h135.25" /><path d="M1096.25 40h135.25" /><rect height="22" rx="10" ry="10" width="28.5" x="1067.75" y="29"></rect><text x="1082" y="44">;</text></g><path d="M1231.5 40h20" /><path d="M912.5 40a10 10 0 0 1 10 10v19a10 10 0 0 0 10 10" /><g>
<path d="M932.5 79h0.0" /><path d="M1231.5 79h0.0" /><g class="terminal ">
<path d="M932.5 79h0.0" /><path d="M961.0 79h0.0" /><rect height="22" rx="10" ry="10" width="28.5" x="932.5" y="68"></rect><text x="946.75" y="83">{</text></g><path d="M961.0 79h10" /><g>
<path d="M971.0 79h0.0" /><path d="M1193.0 79h0.0" /><path d="M971.0 79a10 10 0 0 0 10 -10v0a10 10 0 0 1 10 -10" /><g>
<path d="M991.0 59h182.0" /></g><path d="M1173.0 59a10 10 0 0 1 10 10v0a10 10 0 0 0 10 10" /><path d="M971.0 79h20" /><g>
<path d="M991.0 79h0.0" /><path d="M1173.0 79h0.0" /><path d="M991.0 79h10" /><g>
<path d="M1001.0 79h0.0" /><path d="M1163.0 79h0.0" /><path d="M1001.0 79h20" /><g class="non-terminal ">
<path d="M1021.0 79h8.5" /><path d="M1134.5 79h8.5" /><rect height="22" width="105" x="1029.5" y="68"></rect><text x="1082" y="83">EXTEND-MIB</text></g><path d="M1143.0 79h20" /><path d="M1001.0 79a10 10 0 0 1 10 10v10a10 10 0 0 0 10 10" /><g class="non-terminal ">
<path d="M1021.0 109h21.25" /><path d="M1121.75 109h21.25" /><rect height="22" width="79.5" x="1042.25" y="98"></rect><text x="1082" y="113">COUNTER</text></g><path d="M1143.0 109a10 10 0 0 0 10 -10v-10a10 10 0 0 1 10 -10" /><path d="M1001.0 79a10 10 0 0 1 10 10v40a10 10 0 0 0 10 10" /><g class="non-terminal ">
<path d="M1021.0 139h25.5" /><path d="M1117.5 139h25.5" /><rect height="22" width="71" x="1046.5" y="128"></rect><text x="1082" y="143">ACTION</text></g><path d="M1143.0 139a10 10 0 0 0 10 -10v-40a10 10 0 0 1 10 -10" /><path d="M1001.0 79a10 10 0 0 1 10 10v70a10 10 0 0 0 10 10" /><g class="non-terminal ">
<path d="M1021.0 169h0.0" /><path d="M1143.0 169h0.0" /><rect height="22" width="122" x="1021" y="158"></rect><text x="1082" y="173">SUBSCRIPTION</text></g><path d="M1143.0 169a10 10 0 0 0 10 -10v-70a10 10 0 0 1 10 -10" /><path d="M1001.0 79a10 10 0 0 1 10 10v100a10 10 0 0 0 10 10" /><g class="non-terminal ">
<path d="M1021.0 199h25.5" /><path d="M1117.5 199h25.5" /><rect height="22" width="71" x="1046.5" y="188"></rect><text x="1082" y="203">OBJECT</text></g><path d="M1143.0 199a10 10 0 0 0 10 -10v-100a10 10 0 0 1 10 -10" /><path d="M1001.0 79a10 10 0 0 1 10 10v130a10 10 0 0 0 10 10" /><g class="non-terminal ">
<path d="M1021.0 229h25.5" /><path d="M1117.5 229h25.5" /><rect height="22" width="71" x="1046.5" y="218"></rect><text x="1082" y="233">SELECT</text></g><path d="M1143.0 229a10 10 0 0 0 10 -10v-130a10 10 0 0 1 10 -10" /><path d="M1001.0 79a10 10 0 0 1 10 10v160a10 10 0 0 0 10 10" /><g class="non-terminal ">
<path d="M1021.0 259h12.75" /><path d="M1130.25 259h12.75" /><rect height="22" width="96.5" x="1033.75" y="248"></rect><text x="1082" y="263">PARAMETER</text></g><path d="M1143.0 259a10 10 0 0 0 10 -10v-160a10 10 0 0 1 10 -10" /><path d="M1001.0 79a10 10 0 0 1 10 10v190a10 10 0 0 0 10 10" /><g class="non-terminal ">
<path d="M1021.0 289h29.75" /><path d="M1113.25 289h29.75" /><rect height="22" width="62.5" x="1050.75" y="278"></rect><text x="1082" y="293">EVENT</text></g><path d="M1143.0 289a10 10 0 0 0 10 -10v-190a10 10 0 0 1 10 -10" /><path d="M1001.0 79a10 10 0 0 1 10 10v220a10 10 0 0 0 10 10" /><g class="non-terminal ">
<path d="M1021.0 319h17.0" /><path d="M1126.0 319h17.0" /><rect height="22" width="88" x="1038" y="308"></rect><text x="1082" y="323">FUNCTION</text></g><path d="M1143.0 319a10 10 0 0 0 10 -10v-220a10 10 0 0 1 10 -10" /></g><path d="M1163.0 79h10" /><path d="M1001.0 79a10 10 0 0 0 -10 10v239a10 10 0 0 0 10 10" /><g>
<path d="M1001.0 338h162.0" /></g><path d="M1163.0 338a10 10 0 0 0 10 -10v-239a10 10 0 0 0 -10 -10" /></g><path d="M1173.0 79h20" /></g><path d="M1193.0 79h10" /><g class="terminal ">
<path d="M1203.0 79h0.0" /><path d="M1231.5 79h0.0" /><rect height="22" rx="10" ry="10" width="28.5" x="1203" y="68"></rect><text x="1217.25" y="83">}</text></g></g><path d="M1231.5 79a10 10 0 0 0 10 -10v-19a10 10 0 0 1 10 -10" /></g></g><path d="M1251.5 40h10" /><path d="M 1261.5 40 h 20 m -10 -10 v 20 m 10 -20 v 20"></path></g><style>/* <![CDATA[ */
svg.railroad-diagram {
    background-color:hsl(30,20%,95%);
}
svg.railroad-diagram path {
    stroke-width:3;
    stroke:black;
    fill:rgba(0,0,0,0);
}
svg.railroad-diagram text {
    font:bold 14px monospace;
    text-anchor:middle;
}
svg.railroad-diagram text.label{
    text-anchor:start;
}
svg.railroad-diagram text.comment{
    font:italic 12px monospace;
}
svg.railroad-diagram rect{
    stroke-width:3;
    stroke:black;
    fill:hsl(120,100%,90%);
}
svg.railroad-diagram g.non-terminal rect{
    stroke: black;
    fill: white;
)
svg.railroad-diagram rect.group-box {
    stroke: gray;
    stroke-dasharray: 10 5;
    fill: none;
}
/* ]]> */
</style></svg>