<svg class="railroad-diagram" height="199" viewBox="0 0 1193.0 199" width="1193.0" xmlns="http://www.w3.org/2000/svg" xmlns:xlink="http://www.w3.org/1999/xlink">
<g transform="translate(.5 .5)">
<g>
<path d="M20 30v20m10 -20v20m-10 -10h20" /></g><path d="M40 40h10" /><g>
<path d="M50 40h0.0" /><path d="M1143.0 40h0.0" /><g>
<path d="M50.0 40h0.0" /><path d="M263.5 40h0.0" /><path d="M50.0 40a10 10 0 0 0 10 -10v0a10 10 0 0 1 10 -10" /><g>
<path d="M70.0 20h173.5" /></g><path d="M243.5 20a10 10 0 0 1 10 10v0a10 10 0 0 0 10 10" /><path d="M50.0 40h20" /><g>
<path d="M70.0 40h0.0" /><path d="M243.5 40h0.0" /><path d="M70.0 40h10" /><g>
<path d="M80.0 40h0.0" /><path d="M233.5 40h0.0" /><path d="M80.0 40h20" /><g class="terminal ">
<path d="M100.0 40h4.25" /><path d="M209.25 40h4.25" /><rect height="22" rx="10" ry="10" width="105" x="104.25" y="29"></rect><text x="156.75" y="44">%read-only</text></g><path d="M213.5 40h20" /><path d="M80.0 40a10 10 0 0 1 10 10v10a10 10 0 0 0 10 10" /><g class="terminal ">
<path d="M100.0 70h0.0" /><path d="M213.5 70h0.0" /><rect height="22" rx="10" ry="10" width="113.5" x="100" y="59"></rect><text x="156.75" y="74">%persistent</text></g><path d="M213.5 70a10 10 0 0 0 10 -10v-10a10 10 0 0 1 10 -10" /><path d="M80.0 40a10 10 0 0 1 10 10v40a10 10 0 0 0 10 10" /><g class="terminal ">
<path d="M100.0 100h4.25" /><path d="M209.25 100h4.25" /><rect height="22" rx="10" ry="10" width="105" x="104.25" y="89"></rect><text x="156.75" y="104">%protected</text></g><path d="M213.5 100a10 10 0 0 0 10 -10v-40a10 10 0 0 1 10 -10" /><path d="M80.0 40a10 10 0 0 1 10 10v70a10 10 0 0 0 10 10" /><g class="terminal ">
<path d="M100.0 130h12.75" /><path d="M200.75 130h12.75" /><rect height="22" rx="10" ry="10" width="88" x="112.75" y="119"></rect><text x="156.75" y="134">%private</text></g><path d="M213.5 130a10 10 0 0 0 10 -10v-70a10 10 0 0 1 10 -10" /><path d="M80.0 40a10 10 0 0 1 10 10v100a10 10 0 0 0 10 10" /><g class="terminal ">
<path d="M100.0 160h8.5" /><path d="M205.0 160h8.5" /><rect height="22" rx="10" ry="10" width="96.5" x="108.5" y="149"></rect><text x="156.75" y="164">%volatile</text></g><path d="M213.5 160a10 10 0 0 0 10 -10v-100a10 10 0 0 1 10 -10" /></g><path d="M233.5 40h10" /><path d="M80.0 40a10 10 0 0 0 -10 10v119a10 10 0 0 0 10 10" /><g>
<path d="M80.0 179h153.5" /></g><path d="M233.5 179a10 10 0 0 0 10 -10v-119a10 10 0 0 0 -10 -10" /></g><path d="M243.5 40h20" /></g><g>
<path d="M263.5 40h0.0" /><path d="M477.0 40h0.0" /><path d="M263.5 40a10 10 0 0 0 10 -10v0a10 10 0 0 1 10 -10" /><g>
<path d="M283.5 20h173.5" /></g><path d="M457.0 20a10 10 0 0 1 10 10v0a10 10 0 0 0 10 10" /><path d="M263.5 40h20" /><g>
<path d="M283.5 40h0.0" /><path d="M457.0 40h0.0" /><path d="M283.5 40h10" /><g>
<path d="M293.5 40h0.0" /><path d="M447.0 40h0.0" /><path d="M293.5 40h20" /><g class="terminal ">
<path d="M313.5 40h4.25" /><path d="M422.75 40h4.25" /><rect height="22" rx="10" ry="10" width="105" x="317.75" y="29"></rect><text x="370.25" y="44">!read-only</text></g><path d="M427.0 40h20" /><path d="M293.5 40a10 10 0 0 1 10 10v10a10 10 0 0 0 10 10" /><g class="terminal ">
<path d="M313.5 70h0.0" /><path d="M427.0 70h0.0" /><rect height="22" rx="10" ry="10" width="113.5" x="313.5" y="59"></rect><text x="370.25" y="74">!persistent</text></g><path d="M427.0 70a10 10 0 0 0 10 -10v-10a10 10 0 0 1 10 -10" /><path d="M293.5 40a10 10 0 0 1 10 10v40a10 10 0 0 0 10 10" /><g class="terminal ">
<path d="M313.5 100h4.25" /><path d="M422.75 100h4.25" /><rect height="22" rx="10" ry="10" width="105" x="317.75" y="89"></rect><text x="370.25" y="104">!protected</text></g><path d="M427.0 100a10 10 0 0 0 10 -10v-40a10 10 0 0 1 10 -10" /><path d="M293.5 40a10 10 0 0 1 10 10v70a10 10 0 0 0 10 10" /><g class="terminal ">
<path d="M313.5 130h12.75" /><path d="M414.25 130h12.75" /><rect height="22" rx="10" ry="10" width="88" x="326.25" y="119"></rect><text x="370.25" y="134">!private</text></g><path d="M427.0 130a10 10 0 0 0 10 -10v-70a10 10 0 0 1 10 -10" /><path d="M293.5 40a10 10 0 0 1 10 10v100a10 10 0 0 0 10 10" /><g class="terminal ">
<path d="M313.5 160h8.5" /><path d="M418.5 160h8.5" /><rect height="22" rx="10" ry="10" width="96.5" x="322" y="149"></rect><text x="370.25" y="164">!volatile</text></g><path d="M427.0 160a10 10 0 0 0 10 -10v-100a10 10 0 0 1 10 -10" /></g><path d="M447.0 40h10" /><path d="M293.5 40a10 10 0 0 0 -10 10v119a10 10 0 0 0 10 10" /><g>
<path d="M293.5 179h153.5" /></g><path d="M447.0 179a10 10 0 0 0 10 -10v-119a10 10 0 0 0 -10 -10" /></g><path d="M457.0 40h20" /></g><path d="M477.0 40h10" /><g class="terminal ">
<path d="M487.0 40h0.0" /><path d="M583.5 40h0.0" /><rect height="22" rx="10" ry="10" width="96.5" x="487" y="29"></rect><text x="535.25" y="44">parameter</text></g><path d="M583.5 40h10" /><g>
<path d="M593.5 40h0.0" /><path d="M721.5 40h0.0" /><path d="M593.5 40h20" /><g class="terminal ">
<path d="M613.5 40h8.5" /><path d="M693.0 40h8.5" /><rect height="22" rx="10" ry="10" width="71" x="622" y="29"></rect><text x="657.5" y="44">&lt;NAME></text></g><path d="M701.5 40h20" /><path d="M593.5 40a10 10 0 0 1 10 10v10a10 10 0 0 0 10 10" /><g class="terminal ">
<path d="M613.5 70h0.0" /><path d="M701.5 70h0.0" /><rect height="22" rx="10" ry="10" width="88" x="613.5" y="59"></rect><text x="657.5" y="74">&apos;&lt;NAME>&apos;</text></g><path d="M701.5 70a10 10 0 0 0 10 -10v-10a10 10 0 0 1 10 -10" /><path d="M593.5 40a10 10 0 0 1 10 10v40a10 10 0 0 0 10 10" /><g class="terminal ">
<path d="M613.5 100h0.0" /><path d="M701.5 100h0.0" /><rect height="22" rx="10" ry="10" width="88" x="613.5" y="89"></rect><text x="657.5" y="104">&quot;&lt;NAME>&quot;</text></g><path d="M701.5 100a10 10 0 0 0 10 -10v-40a10 10 0 0 1 10 -10" /></g><g>
<path d="M721.5 40h0.0" /><path d="M889.5 40h0.0" /><path d="M721.5 40a10 10 0 0 0 10 -10v0a10 10 0 0 1 10 -10" /><g>
<path d="M741.5 20h128.0" /></g><path d="M869.5 20a10 10 0 0 1 10 10v0a10 10 0 0 0 10 10" /><path d="M721.5 40h20" /><g>
<path d="M741.5 40h0.0" /><path d="M869.5 40h0.0" /><g class="terminal ">
<path d="M741.5 40h0.0" /><path d="M770.0 40h0.0" /><rect height="22" rx="10" ry="10" width="28.5" x="741.5" y="29"></rect><text x="755.75" y="44">=</text></g><path d="M770.0 40h10" /><path d="M780.0 40h10" /><g class="non-terminal ">
<path d="M790.0 40h0.0" /><path d="M869.5 40h0.0" /><rect height="22" width="79.5" x="790" y="29"></rect><text x="829.75" y="44">&lt;VALUE></text></g></g><path d="M869.5 40h20" /></g><g>
<path d="M889.5 40h0.0" /><path d="M1143.0 40h0.0" /><path d="M889.5 40h20" /><g class="terminal ">
<path d="M909.5 40h92.5" /><path d="M1030.5 40h92.5" /><rect height="22" rx="10" ry="10" width="28.5" x="1002" y="29"></rect><text x="1016.25" y="44">;</text></g><path d="M1123.0 40h20" /><path d="M889.5 40a10 10 0 0 1 10 10v10a10 10 0 0 0 10 10" /><g>
<path d="M909.5 70h0.0" /><path d="M1123.0 70h0.0" /><g class="terminal ">
<path d="M909.5 70h0.0" /><path d="M938.0 70h0.0" /><rect height="22" rx="10" ry="10" width="28.5" x="909.5" y="59"></rect><text x="923.75" y="74">{</text></g><path d="M938.0 70h10" /><g>
<path d="M948.0 70h0.0" /><path d="M1084.5 70h0.0" /><path d="M948.0 70h20" /><g>
<path d="M968.0 70h96.5" /></g><path d="M1064.5 70h20" /><path d="M948.0 70a10 10 0 0 1 10 10v0a10 10 0 0 0 10 10" /><g class="non-terminal ">
<path d="M968.0 90h0.0" /><path d="M1064.5 90h0.0" /><rect height="22" width="96.5" x="968" y="79"></rect><text x="1016.25" y="94">USERFLAGS</text></g><path d="M1064.5 90a10 10 0 0 0 10 -10v0a10 10 0 0 1 10 -10" /></g><path d="M1084.5 70h10" /><g class="terminal ">
<path d="M1094.5 70h0.0" /><path d="M1123.0 70h0.0" /><rect height="22" rx="10" ry="10" width="28.5" x="1094.5" y="59"></rect><text x="1108.75" y="74">}</text></g></g><path d="M1123.0 70a10 10 0 0 0 10 -10v-10a10 10 0 0 1 10 -10" /></g></g><path d="M1143.0 40h10" /><path d="M 1153.0 40 h 20 m -10 -10 v 20 m 10 -20 v 20"></path></g><style>/* <![CDATA[ */
svg.railroad-diagram {
    background-color:hsl(30,20%,95%);
}
svg.railroad-diagram path {
    stroke-width:3;
    stroke:black;
    fill:rgba(0,0,0,0);
}
svg.railroad-diagram text {
    font:bold 14px monospace;
    text-anchor:middle;
}
svg.railroad-diagram text.label{
    text-anchor:start;
}
svg.railroad-diagram text.comment{
    font:italic 12px monospace;
}
svg.railroad-diagram rect{
    stroke-width:3;
    stroke:black;
    fill:hsl(120,100%,90%);
}
svg.railroad-diagram g.non-terminal rect{
    stroke: black;
    fill: white;
)
svg.railroad-diagram rect.group-box {
    stroke: gray;
    stroke-dasharray: 10 5;
    fill: none;
}
/* ]]> */
</style></svg>