<svg class="railroad-diagram" height="71" viewBox="0 0 555.0 71" width="555.0" xmlns="http://www.w3.org/2000/svg" xmlns:xlink="http://www.w3.org/1999/xlink">
<g transform="translate(.5 .5)">
<g>
<path d="M20 30v20m10 -20v20m-10 -10h20" /></g><path d="M40 40h10" /><g>
<path d="M50 40h0.0" /><path d="M505.0 40h0.0" /><g class="terminal ">
<path d="M50.0 40h0.0" /><path d="M87.0 40h0.0" /><rect height="22" rx="10" ry="10" width="37" x="50" y="29"></rect><text x="68.5" y="44">&lt;!</text></g><path d="M87.0 40h10" /><path d="M97.0 40h10" /><g class="terminal ">
<path d="M107.0 40h0.0" /><path d="M212.0 40h0.0" /><rect height="22" rx="10" ry="10" width="105" x="107" y="29"></rect><text x="159.5" y="44">&lt;RESOLVER></text></g><path d="M212.0 40h10" /><g>
<path d="M222.0 40h0.0" /><path d="M458.0 40h0.0" /><path d="M222.0 40a10 10 0 0 0 10 -10v0a10 10 0 0 1 10 -10" /><g>
<path d="M242.0 20h196.0" /></g><path d="M438.0 20a10 10 0 0 1 10 10v0a10 10 0 0 0 10 10" /><path d="M222.0 40h20" /><g>
<path d="M242.0 40h0.0" /><path d="M438.0 40h0.0" /><g class="terminal ">
<path d="M242.0 40h0.0" /><path d="M270.5 40h0.0" /><rect height="22" rx="10" ry="10" width="28.5" x="242" y="29"></rect><text x="256.25" y="44">:</text></g><path d="M270.5 40h10" /><path d="M280.5 40h10" /><g class="terminal ">
<path d="M290.5 40h0.0" /><path d="M438.0 40h0.0" /><rect height="22" rx="10" ry="10" width="147.5" x="290.5" y="29"></rect><text x="364.25" y="44">&lt;RESOLVER-DATA></text></g></g><path d="M438.0 40h20" /></g><path d="M458.0 40h10" /><g class="terminal ">
<path d="M468.0 40h0.0" /><path d="M505.0 40h0.0" /><rect height="22" rx="10" ry="10" width="37" x="468" y="29"></rect><text x="486.5" y="44">!></text></g></g><path d="M505.0 40h10" /><path d="M 515.0 40 h 20 m -10 -10 v 20 m 10 -20 v 20"></path></g><style>/* <![CDATA[ */
svg.railroad-diagram {
    background-color:hsl(30,20%,95%);
}
svg.railroad-diagram path {
    stroke-width:3;
    stroke:black;
    fill:rgba(0,0,0,0);
}
svg.railroad-diagram text {
    font:bold 14px monospace;
    text-anchor:middle;
}
svg.railroad-diagram text.label{
    text-anchor:start;
}
svg.railroad-diagram text.comment{
    font:italic 12px monospace;
}
svg.railroad-diagram rect{
    stroke-width:3;
    stroke:black;
    fill:hsl(120,100%,90%);
}
svg.railroad-diagram g.non-terminal rect{
    stroke: black;
    fill: white;
)
svg.railroad-diagram rect.group-box {
    stroke: gray;
    stroke-dasharray: 10 5;
    fill: none;
}
/* ]]> */
</style></svg>