<svg class="railroad-diagram" height="349" viewBox="0 0 648.0 349" width="648.0" xmlns="http://www.w3.org/2000/svg" xmlns:xlink="http://www.w3.org/1999/xlink">
<g transform="translate(.5 .5)">
<g>
<path d="M20 21v20m10 -20v20m-10 -10h20" /></g><path d="M40 31h10" /><g>
<path d="M50 31h0.0" /><path d="M598.0 31h0.0" /><g class="terminal ">
<path d="M50.0 31h0.0" /><path d="M121.0 31h0.0" /><rect height="22" rx="10" ry="10" width="71" x="50" y="20"></rect><text x="85.5" y="35">select</text></g><path d="M121.0 31h10" /><g>
<path d="M131.0 31h0.0" /><path d="M259.0 31h0.0" /><path d="M131.0 31h20" /><g class="terminal ">
<path d="M151.0 31h8.5" /><path d="M230.5 31h8.5" /><rect height="22" rx="10" ry="10" width="71" x="159.5" y="20"></rect><text x="195" y="35">&lt;PATH></text></g><path d="M239.0 31h20" /><path d="M131.0 31a10 10 0 0 1 10 10v10a10 10 0 0 0 10 10" /><g class="terminal ">
<path d="M151.0 61h0.0" /><path d="M239.0 61h0.0" /><rect height="22" rx="10" ry="10" width="88" x="151" y="50"></rect><text x="195" y="65">&apos;&lt;PATH>&apos;</text></g><path d="M239.0 61a10 10 0 0 0 10 -10v-10a10 10 0 0 1 10 -10" /><path d="M131.0 31a10 10 0 0 1 10 10v40a10 10 0 0 0 10 10" /><g class="terminal ">
<path d="M151.0 91h0.0" /><path d="M239.0 91h0.0" /><rect height="22" rx="10" ry="10" width="88" x="151" y="80"></rect><text x="195" y="95">&quot;&lt;PATH>&quot;</text></g><path d="M239.0 91a10 10 0 0 0 10 -10v-40a10 10 0 0 1 10 -10" /></g><g>
<path d="M259.0 31h0.0" /><path d="M598.0 31h0.0" /><path d="M259.0 31h20" /><g class="terminal ">
<path d="M279.0 31h135.25" /><path d="M442.75 31h135.25" /><rect height="22" rx="10" ry="10" width="28.5" x="414.25" y="20"></rect><text x="428.5" y="35">;</text></g><path d="M578.0 31h20" /><path d="M259.0 31a10 10 0 0 1 10 10v19a10 10 0 0 0 10 10" /><g>
<path d="M279.0 70h0.0" /><path d="M578.0 70h0.0" /><g class="terminal ">
<path d="M279.0 70h0.0" /><path d="M307.5 70h0.0" /><rect height="22" rx="10" ry="10" width="28.5" x="279" y="59"></rect><text x="293.25" y="74">{</text></g><path d="M307.5 70h10" /><g>
<path d="M317.5 70h0.0" /><path d="M539.5 70h0.0" /><path d="M317.5 70a10 10 0 0 0 10 -10v0a10 10 0 0 1 10 -10" /><g>
<path d="M337.5 50h182.0" /></g><path d="M519.5 50a10 10 0 0 1 10 10v0a10 10 0 0 0 10 10" /><path d="M317.5 70h20" /><g>
<path d="M337.5 70h0.0" /><path d="M519.5 70h0.0" /><path d="M337.5 70h10" /><g>
<path d="M347.5 70h0.0" /><path d="M509.5 70h0.0" /><path d="M347.5 70h20" /><g class="non-terminal ">
<path d="M367.5 70h8.5" /><path d="M481.0 70h8.5" /><rect height="22" width="105" x="376" y="59"></rect><text x="428.5" y="74">EXTEND-MIB</text></g><path d="M489.5 70h20" /><path d="M347.5 70a10 10 0 0 1 10 10v10a10 10 0 0 0 10 10" /><g class="non-terminal ">
<path d="M367.5 100h21.25" /><path d="M468.25 100h21.25" /><rect height="22" width="79.5" x="388.75" y="89"></rect><text x="428.5" y="104">COUNTER</text></g><path d="M489.5 100a10 10 0 0 0 10 -10v-10a10 10 0 0 1 10 -10" /><path d="M347.5 70a10 10 0 0 1 10 10v40a10 10 0 0 0 10 10" /><g class="non-terminal ">
<path d="M367.5 130h25.5" /><path d="M464.0 130h25.5" /><rect height="22" width="71" x="393" y="119"></rect><text x="428.5" y="134">ACTION</text></g><path d="M489.5 130a10 10 0 0 0 10 -10v-40a10 10 0 0 1 10 -10" /><path d="M347.5 70a10 10 0 0 1 10 10v70a10 10 0 0 0 10 10" /><g class="non-terminal ">
<path d="M367.5 160h0.0" /><path d="M489.5 160h0.0" /><rect height="22" width="122" x="367.5" y="149"></rect><text x="428.5" y="164">SUBSCRIPTION</text></g><path d="M489.5 160a10 10 0 0 0 10 -10v-70a10 10 0 0 1 10 -10" /><path d="M347.5 70a10 10 0 0 1 10 10v100a10 10 0 0 0 10 10" /><g class="non-terminal ">
<path d="M367.5 190h25.5" /><path d="M464.0 190h25.5" /><rect height="22" width="71" x="393" y="179"></rect><text x="428.5" y="194">OBJECT</text></g><path d="M489.5 190a10 10 0 0 0 10 -10v-100a10 10 0 0 1 10 -10" /><path d="M347.5 70a10 10 0 0 1 10 10v130a10 10 0 0 0 10 10" /><g class="non-terminal ">
<path d="M367.5 220h25.5" /><path d="M464.0 220h25.5" /><rect height="22" width="71" x="393" y="209"></rect><text x="428.5" y="224">SELECT</text></g><path d="M489.5 220a10 10 0 0 0 10 -10v-130a10 10 0 0 1 10 -10" /><path d="M347.5 70a10 10 0 0 1 10 10v160a10 10 0 0 0 10 10" /><g class="non-terminal ">
<path d="M367.5 250h12.75" /><path d="M476.75 250h12.75" /><rect height="22" width="96.5" x="380.25" y="239"></rect><text x="428.5" y="254">PARAMETER</text></g><path d="M489.5 250a10 10 0 0 0 10 -10v-160a10 10 0 0 1 10 -10" /><path d="M347.5 70a10 10 0 0 1 10 10v190a10 10 0 0 0 10 10" /><g class="non-terminal ">
<path d="M367.5 280h29.75" /><path d="M459.75 280h29.75" /><rect height="22" width="62.5" x="397.25" y="269"></rect><text x="428.5" y="284">EVENT</text></g><path d="M489.5 280a10 10 0 0 0 10 -10v-190a10 10 0 0 1 10 -10" /><path d="M347.5 70a10 10 0 0 1 10 10v220a10 10 0 0 0 10 10" /><g class="non-terminal ">
<path d="M367.5 310h17.0" /><path d="M472.5 310h17.0" /><rect height="22" width="88" x="384.5" y="299"></rect><text x="428.5" y="314">FUNCTION</text></g><path d="M489.5 310a10 10 0 0 0 10 -10v-220a10 10 0 0 1 10 -10" /></g><path d="M509.5 70h10" /><path d="M347.5 70a10 10 0 0 0 -10 10v239a10 10 0 0 0 10 10" /><g>
<path d="M347.5 329h162.0" /></g><path d="M509.5 329a10 10 0 0 0 10 -10v-239a10 10 0 0 0 -10 -10" /></g><path d="M519.5 70h20" /></g><path d="M539.5 70h10" /><g class="terminal ">
<path d="M549.5 70h0.0" /><path d="M578.0 70h0.0" /><rect height="22" rx="10" ry="10" width="28.5" x="549.5" y="59"></rect><text x="563.75" y="74">}</text></g></g><path d="M578.0 70a10 10 0 0 0 10 -10v-19a10 10 0 0 1 10 -10" /></g></g><path d="M598.0 31h10" /><path d="M 608.0 31 h 20 m -10 -10 v 20 m 10 -20 v 20"></path></g><style>/* <![CDATA[ */
svg.railroad-diagram {
    background-color:hsl(30,20%,95%);
}
svg.railroad-diagram path {
    stroke-width:3;
    stroke:black;
    fill:rgba(0,0,0,0);
}
svg.railroad-diagram text {
    font:bold 14px monospace;
    text-anchor:middle;
}
svg.railroad-diagram text.label{
    text-anchor:start;
}
svg.railroad-diagram text.comment{
    font:italic 12px monospace;
}
svg.railroad-diagram rect{
    stroke-width:3;
    stroke:black;
    fill:hsl(120,100%,90%);
}
svg.railroad-diagram g.non-terminal rect{
    stroke: black;
    fill: white;
)
svg.railroad-diagram rect.group-box {
    stroke: gray;
    stroke-dasharray: 10 5;
    fill: none;
}
/* ]]> */
</style></svg>